<mxfile host="app.diagrams.net" modified="2023-09-11T15:07:45.648Z" agent="Mozilla/5.0 (X11; Linux x86_64) AppleWebKit/537.36 (KHTML, like Gecko) Chrome/116.0.0.0 Safari/537.36" version="21.7.4" etag="tctBSoiXXrlKlOm_Ky14" type="github">
  <diagram name="Page-1" id="GuAIrgh7CEdZvl_OZaP4">
    <mxGraphModel>
      <root>
        <mxCell id="0" />
        <mxCell id="1" parent="0" />
      </root>
    </mxGraphModel>
  </diagram>
</mxfile>
